# xmcd
#
# Track frame offsets: 
#        150
#        19791
#        42933
#        61411
#        86539
#        112339
#        132928
#        155450
#        182332
#        204926
#        223647
#        243867
#        271950
#        292041
#        308910
#
# Disc length: 4558 seconds
#
# Revision: 3
# Processed by: cddbd v1.5.2PL0 Copyright (c) Steve Scherf et al.
# Submitted via: ExactAudioCopy v1.0b3
#
DISCID=d411cc0f
DTITLE=Xavier Naidoo - Telegramm Für X
DYEAR=2005
DGENRE=R&B/Soul
TTITLE0=Und
TTITLE1=Bitte frag' mich nicht
TTITLE2=Dieser Weg
TTITLE3=Zeilen aus Gold
TTITLE4=Oh my lady
TTITLE5=Seelenheil
TTITLE6=Wo komme ich her
TTITLE7=Bist du am Leben interessiert
TTITLE8=Abgrund
TTITLE9=Bist du aufgewacht
TTITLE10=Sie sind nicht dafür
TTITLE11=In Deine Hände
TTITLE12=Du bist wie ein Segen
TTITLE13=Was wir alleine nicht schaffen
TTITLE14=Danke
EXTD=
EXTT0=
EXTT1=
EXTT2=
EXTT3=
EXTT4=
EXTT5=
EXTT6=
EXTT7=
EXTT8=
EXTT9=
EXTT10=
EXTT11=
EXTT12=
EXTT13=
EXTT14=
PLAYORDER=
